<?xml version="1.0" encoding="utf-8"?>
<!-- Generator: Adobe Illustrator 24.0.1, SVG Export Plug-In . SVG Version: 6.00 Build 0)  -->
<svg version="1.1" id="Layer_1" xmlns="http://www.w3.org/2000/svg" xmlns:xlink="http://www.w3.org/1999/xlink" x="0px" y="0px"
	 viewBox="0 0 355.7 214.8" style="enable-background:new 0 0 355.7 214.8;" xml:space="preserve">
<style type="text/css">
	.st0{fill:#FFFFFF;}
</style>
<title>bg_multitouch</title>
<rect x="25.3" y="8.4" class="st0" width="0.8" height="0.9"/>
<polygon class="st0" points="43.1,8.4 43.1,9.3 43.5,9.3 44,9.3 44,8.4 43.5,8.4 "/>
<rect x="61" y="8.4" class="st0" width="0.8" height="0.9"/>
<polygon class="st0" points="78.8,8.4 78.8,9.3 79.3,9.3 79.7,9.3 79.7,8.4 79.3,8.4 "/>
<rect x="96.7" y="8.4" class="st0" width="0.8" height="0.9"/>
<polygon class="st0" points="114.5,8.4 114.5,9.3 115,9.3 115.4,9.3 115.4,8.4 115,8.4 "/>
<rect x="132.4" y="8.4" class="st0" width="0.9" height="0.9"/>
<polygon class="st0" points="150.2,8.4 150.2,9.3 150.7,9.3 151.1,9.3 151.1,8.4 150.7,8.4 "/>
<rect x="168.1" y="8.4" class="st0" width="0.9" height="0.9"/>
<polygon class="st0" points="186,8.4 186,9.3 186.4,9.3 186.9,9.3 186.9,8.4 186.4,8.4 "/>
<rect x="203.8" y="8.4" class="st0" width="0.9" height="0.9"/>
<polygon class="st0" points="221.7,8.4 221.7,9.3 222.1,9.3 222.6,9.3 222.6,8.4 222.1,8.4 "/>
<rect x="239.6" y="8.4" class="st0" width="0.9" height="0.9"/>
<polygon class="st0" points="257.4,8.4 257.4,9.3 257.8,9.3 258.3,9.3 258.3,8.4 257.8,8.4 "/>
<rect x="275.3" y="8.4" class="st0" width="0.9" height="0.9"/>
<polygon class="st0" points="293.1,8.4 293.1,9.3 293.6,9.3 294,9.3 294,8.4 293.6,8.4 "/>
<rect x="311" y="8.4" class="st0" width="0.9" height="0.9"/>
<polygon class="st0" points="328.8,8.4 328.8,9.3 329.3,9.3 329.7,9.3 329.7,8.4 329.3,8.4 "/>
<rect x="346.7" y="8.4" class="st0" width="0.9" height="0.9"/>
<rect x="16.7" y="26.2" class="st0" width="0.8" height="0.9"/>
<polygon class="st0" points="34.5,26.2 34.5,27.1 35,27.1 35.4,27.1 35.4,26.2 35,26.2 "/>
<rect x="52.4" y="26.2" class="st0" width="0.8" height="0.9"/>
<polygon class="st0" points="70.2,26.2 70.2,27.1 70.7,27.1 71.1,27.1 71.1,26.2 70.7,26.2 "/>
<rect x="88.1" y="26.2" class="st0" width="0.8" height="0.9"/>
<polygon class="st0" points="105.9,26.2 105.9,27.1 106.4,27.1 106.8,27.1 106.8,26.2 106.4,26.2 "/>
<rect x="123.8" y="26.2" class="st0" width="0.9" height="0.9"/>
<polygon class="st0" points="141.6,26.2 141.6,27.1 142.1,27.1 142.5,27.1 142.5,26.2 142.1,26.2 "/>
<rect x="159.5" y="26.2" class="st0" width="0.9" height="0.9"/>
<polygon class="st0" points="177.4,26.2 177.4,27.1 177.8,27.1 178.3,27.1 178.3,26.2 177.8,26.2 "/>
<rect x="195.2" y="26.2" class="st0" width="0.9" height="0.9"/>
<polygon class="st0" points="213.1,26.2 213.1,27.1 213.5,27.1 214,27.1 214,26.2 213.5,26.2 "/>
<rect x="231" y="26.2" class="st0" width="0.9" height="0.9"/>
<polygon class="st0" points="248.8,26.2 248.8,27.1 249.2,27.1 249.7,27.1 249.7,26.2 249.2,26.2 "/>
<rect x="266.7" y="26.2" class="st0" width="0.9" height="0.9"/>
<polygon class="st0" points="284.5,26.2 284.5,27.1 285,27.1 285.4,27.1 285.4,26.2 285,26.2 "/>
<rect x="302.4" y="26.2" class="st0" width="0.9" height="0.9"/>
<polygon class="st0" points="320.2,26.2 320.2,27.1 320.7,27.1 321.1,27.1 321.1,26.2 320.7,26.2 "/>
<rect x="338.1" y="26.2" class="st0" width="0.9" height="0.9"/>
<rect x="25.3" y="44.1" class="st0" width="0.8" height="0.9"/>
<polygon class="st0" points="43.1,44.1 43.1,45 43.5,45 44,45 44,44.1 43.5,44.1 "/>
<rect x="61" y="44.1" class="st0" width="0.8" height="0.9"/>
<polygon class="st0" points="78.8,44.1 78.8,45 79.3,45 79.7,45 79.7,44.1 79.3,44.1 "/>
<rect x="96.7" y="44.1" class="st0" width="0.8" height="0.9"/>
<polygon class="st0" points="114.5,44.1 114.5,45 115,45 115.4,45 115.4,44.1 115,44.1 "/>
<rect x="132.4" y="44.1" class="st0" width="0.9" height="0.9"/>
<polygon class="st0" points="150.2,44.1 150.2,45 150.7,45 151.1,45 151.1,44.1 150.7,44.1 "/>
<rect x="168.1" y="44.1" class="st0" width="0.9" height="0.9"/>
<polygon class="st0" points="186,44.1 186,45 186.4,45 186.9,45 186.9,44.1 186.4,44.1 "/>
<rect x="203.8" y="44.1" class="st0" width="0.9" height="0.9"/>
<polygon class="st0" points="221.7,44.1 221.7,45 222.1,45 222.6,45 222.6,44.1 222.1,44.1 "/>
<rect x="239.6" y="44.1" class="st0" width="0.9" height="0.9"/>
<polygon class="st0" points="257.4,44.1 257.4,45 257.8,45 258.3,45 258.3,44.1 257.8,44.1 "/>
<rect x="275.3" y="44.1" class="st0" width="0.9" height="0.9"/>
<polygon class="st0" points="293.1,44.1 293.1,45 293.6,45 294,45 294,44.1 293.6,44.1 "/>
<rect x="311" y="44.1" class="st0" width="0.9" height="0.9"/>
<polygon class="st0" points="328.8,44.1 328.8,45 329.3,45 329.7,45 329.7,44.1 329.3,44.1 "/>
<rect x="346.7" y="44.1" class="st0" width="0.9" height="0.9"/>
<rect x="16.7" y="61.9" class="st0" width="0.8" height="0.9"/>
<polygon class="st0" points="34.5,61.9 34.5,62.8 35,62.8 35.4,62.8 35.4,61.9 35,61.9 "/>
<rect x="52.4" y="61.9" class="st0" width="0.8" height="0.9"/>
<polygon class="st0" points="70.2,61.9 70.2,62.8 70.7,62.8 71.1,62.8 71.1,61.9 70.7,61.9 "/>
<rect x="88.1" y="61.9" class="st0" width="0.8" height="0.9"/>
<polygon class="st0" points="105.9,61.9 105.9,62.8 106.4,62.8 106.8,62.8 106.8,61.9 106.4,61.9 "/>
<rect x="123.8" y="61.9" class="st0" width="0.9" height="0.9"/>
<polygon class="st0" points="141.6,61.9 141.6,62.8 142.1,62.8 142.5,62.8 142.5,61.9 142.1,61.9 "/>
<rect x="159.5" y="61.9" class="st0" width="0.9" height="0.9"/>
<polygon class="st0" points="177.4,61.9 177.4,62.8 177.8,62.8 178.3,62.8 178.3,61.9 177.8,61.9 "/>
<rect x="195.2" y="61.9" class="st0" width="0.9" height="0.9"/>
<polygon class="st0" points="213.1,61.9 213.1,62.8 213.5,62.8 214,62.8 214,61.9 213.5,61.9 "/>
<rect x="231" y="61.9" class="st0" width="0.9" height="0.9"/>
<polygon class="st0" points="248.8,61.9 248.8,62.8 249.2,62.8 249.7,62.8 249.7,61.9 249.2,61.9 "/>
<rect x="266.7" y="61.9" class="st0" width="0.9" height="0.9"/>
<polygon class="st0" points="284.5,61.9 284.5,62.8 285,62.8 285.4,62.8 285.4,61.9 285,61.9 "/>
<rect x="302.4" y="61.9" class="st0" width="0.9" height="0.9"/>
<polygon class="st0" points="320.2,61.9 320.2,62.8 320.7,62.8 321.1,62.8 321.1,61.9 320.7,61.9 "/>
<rect x="338.1" y="61.9" class="st0" width="0.9" height="0.9"/>
<rect x="25.3" y="79.8" class="st0" width="0.8" height="0.9"/>
<polygon class="st0" points="43.1,79.8 43.1,80.7 43.5,80.7 44,80.7 44,79.8 43.5,79.8 "/>
<rect x="61" y="79.8" class="st0" width="0.8" height="0.9"/>
<polygon class="st0" points="78.8,79.8 78.8,80.7 79.3,80.7 79.7,80.7 79.7,79.8 79.3,79.8 "/>
<rect x="96.7" y="79.8" class="st0" width="0.8" height="0.9"/>
<polygon class="st0" points="114.5,79.8 114.5,80.7 115,80.7 115.4,80.7 115.4,79.8 115,79.8 "/>
<rect x="132.4" y="79.8" class="st0" width="0.9" height="0.9"/>
<polygon class="st0" points="150.2,79.8 150.2,80.7 150.7,80.7 151.1,80.7 151.1,79.8 150.7,79.8 "/>
<rect x="168.1" y="79.8" class="st0" width="0.9" height="0.9"/>
<polygon class="st0" points="186,79.8 186,80.7 186.4,80.7 186.9,80.7 186.9,79.8 186.4,79.8 "/>
<rect x="203.8" y="79.8" class="st0" width="0.9" height="0.9"/>
<polygon class="st0" points="221.7,79.8 221.7,80.7 222.1,80.7 222.6,80.7 222.6,79.8 222.1,79.8 "/>
<rect x="239.6" y="79.8" class="st0" width="0.9" height="0.9"/>
<polygon class="st0" points="257.4,79.8 257.4,80.7 257.8,80.7 258.3,80.7 258.3,79.8 257.8,79.8 "/>
<rect x="275.3" y="79.8" class="st0" width="0.9" height="0.9"/>
<polygon class="st0" points="293.1,79.8 293.1,80.7 293.6,80.7 294,80.7 294,79.8 293.6,79.8 "/>
<rect x="311" y="79.8" class="st0" width="0.9" height="0.9"/>
<polygon class="st0" points="328.8,79.8 328.8,80.7 329.3,80.7 329.7,80.7 329.7,79.8 329.3,79.8 "/>
<rect x="346.7" y="79.8" class="st0" width="0.9" height="0.9"/>
<rect x="16.7" y="97.6" class="st0" width="0.8" height="0.9"/>
<polygon class="st0" points="34.5,97.6 34.5,98.5 35,98.5 35.4,98.5 35.4,97.6 35,97.6 "/>
<rect x="52.4" y="97.6" class="st0" width="0.8" height="0.9"/>
<polygon class="st0" points="70.2,97.6 70.2,98.5 70.7,98.5 71.1,98.5 71.1,97.6 70.7,97.6 "/>
<rect x="88.1" y="97.6" class="st0" width="0.8" height="0.9"/>
<polygon class="st0" points="105.9,97.6 105.9,98.5 106.4,98.5 106.8,98.5 106.8,97.6 106.4,97.6 "/>
<rect x="123.8" y="97.6" class="st0" width="0.9" height="0.9"/>
<polygon class="st0" points="141.6,97.6 141.6,98.5 142.1,98.5 142.5,98.5 142.5,97.6 142.1,97.6 "/>
<rect x="159.5" y="97.6" class="st0" width="0.9" height="0.9"/>
<polygon class="st0" points="177.4,97.6 177.4,98.5 177.8,98.5 178.3,98.5 178.3,97.6 177.8,97.6 "/>
<rect x="195.2" y="97.6" class="st0" width="0.9" height="0.9"/>
<polygon class="st0" points="213.1,97.6 213.1,98.5 213.5,98.5 214,98.5 214,97.6 213.5,97.6 "/>
<rect x="231" y="97.6" class="st0" width="0.9" height="0.9"/>
<polygon class="st0" points="248.8,97.6 248.8,98.5 249.2,98.5 249.7,98.5 249.7,97.6 249.2,97.6 "/>
<rect x="266.7" y="97.6" class="st0" width="0.9" height="0.9"/>
<polygon class="st0" points="284.5,97.6 284.5,98.5 285,98.5 285.4,98.5 285.4,97.6 285,97.6 "/>
<rect x="302.4" y="97.6" class="st0" width="0.9" height="0.9"/>
<polygon class="st0" points="320.2,97.6 320.2,98.5 320.7,98.5 321.1,98.5 321.1,97.6 320.7,97.6 "/>
<rect x="338.1" y="97.6" class="st0" width="0.9" height="0.9"/>
<rect x="25.3" y="115.5" class="st0" width="0.8" height="0.9"/>
<polygon class="st0" points="43.1,115.5 43.1,116.4 43.5,116.4 44,116.4 44,115.5 43.5,115.5 "/>
<rect x="61" y="115.5" class="st0" width="0.8" height="0.9"/>
<polygon class="st0" points="78.8,115.5 78.8,116.4 79.3,116.4 79.7,116.4 79.7,115.5 79.3,115.5 "/>
<rect x="96.7" y="115.5" class="st0" width="0.8" height="0.9"/>
<polygon class="st0" points="114.5,115.5 114.5,116.4 115,116.4 115.4,116.4 115.4,115.5 115,115.5 "/>
<rect x="132.4" y="115.5" class="st0" width="0.9" height="0.9"/>
<polygon class="st0" points="150.2,115.5 150.2,116.4 150.7,116.4 151.1,116.4 151.1,115.5 150.7,115.5 "/>
<rect x="168.1" y="115.5" class="st0" width="0.9" height="0.9"/>
<polygon class="st0" points="186,115.5 186,116.4 186.4,116.4 186.9,116.4 186.9,115.5 186.4,115.5 "/>
<rect x="203.8" y="115.5" class="st0" width="0.9" height="0.9"/>
<polygon class="st0" points="221.7,115.5 221.7,116.4 222.1,116.4 222.6,116.4 222.6,115.5 222.1,115.5 "/>
<rect x="239.6" y="115.5" class="st0" width="0.9" height="0.9"/>
<polygon class="st0" points="257.4,115.5 257.4,116.4 257.8,116.4 258.3,116.4 258.3,115.5 257.8,115.5 "/>
<rect x="275.3" y="115.5" class="st0" width="0.9" height="0.9"/>
<polygon class="st0" points="293.1,115.5 293.1,116.4 293.6,116.4 294,116.4 294,115.5 293.6,115.5 "/>
<rect x="311" y="115.5" class="st0" width="0.9" height="0.9"/>
<polygon class="st0" points="328.8,115.5 328.8,116.4 329.3,116.4 329.7,116.4 329.7,115.5 329.3,115.5 "/>
<rect x="346.7" y="115.5" class="st0" width="0.9" height="0.9"/>
<rect x="16.7" y="133.4" class="st0" width="0.8" height="0.9"/>
<polygon class="st0" points="34.5,133.4 34.5,134.3 35,134.3 35.4,134.3 35.4,133.4 35,133.4 "/>
<rect x="52.4" y="133.4" class="st0" width="0.8" height="0.9"/>
<polygon class="st0" points="70.2,133.4 70.2,134.3 70.7,134.3 71.1,134.3 71.1,133.4 70.7,133.4 "/>
<rect x="88.1" y="133.4" class="st0" width="0.8" height="0.9"/>
<polygon class="st0" points="105.9,133.4 105.9,134.3 106.4,134.3 106.8,134.3 106.8,133.4 106.4,133.4 "/>
<rect x="123.8" y="133.4" class="st0" width="0.9" height="0.9"/>
<polygon class="st0" points="141.6,133.4 141.6,134.3 142.1,134.3 142.5,134.3 142.5,133.4 142.1,133.4 "/>
<rect x="159.5" y="133.4" class="st0" width="0.9" height="0.9"/>
<polygon class="st0" points="177.4,133.4 177.4,134.3 177.8,134.3 178.3,134.3 178.3,133.4 177.8,133.4 "/>
<rect x="195.2" y="133.4" class="st0" width="0.9" height="0.9"/>
<polygon class="st0" points="213.1,133.4 213.1,134.3 213.5,134.3 214,134.3 214,133.4 213.5,133.4 "/>
<rect x="231" y="133.4" class="st0" width="0.9" height="0.9"/>
<polygon class="st0" points="248.8,133.4 248.8,134.3 249.2,134.3 249.7,134.3 249.7,133.4 249.2,133.4 "/>
<rect x="266.7" y="133.4" class="st0" width="0.9" height="0.9"/>
<polygon class="st0" points="284.5,133.4 284.5,134.3 285,134.3 285.4,134.3 285.4,133.4 285,133.4 "/>
<rect x="302.4" y="133.4" class="st0" width="0.9" height="0.9"/>
<polygon class="st0" points="320.2,133.4 320.2,134.3 320.7,134.3 321.1,134.3 321.1,133.4 320.7,133.4 "/>
<rect x="338.1" y="133.4" class="st0" width="0.9" height="0.9"/>
<rect x="25.3" y="151.2" class="st0" width="0.8" height="0.9"/>
<polygon class="st0" points="43.1,151.2 43.1,152.1 43.5,152.1 44,152.1 44,151.2 43.5,151.2 "/>
<rect x="61" y="151.2" class="st0" width="0.8" height="0.9"/>
<polygon class="st0" points="78.8,151.2 78.8,152.1 79.3,152.1 79.7,152.1 79.7,151.2 79.3,151.2 "/>
<rect x="96.7" y="151.2" class="st0" width="0.8" height="0.9"/>
<polygon class="st0" points="114.5,151.2 114.5,152.1 115,152.1 115.4,152.1 115.4,151.2 115,151.2 "/>
<rect x="132.4" y="151.2" class="st0" width="0.9" height="0.9"/>
<polygon class="st0" points="150.2,151.2 150.2,152.1 150.7,152.1 151.1,152.1 151.1,151.2 150.7,151.2 "/>
<rect x="168.1" y="151.2" class="st0" width="0.9" height="0.9"/>
<polygon class="st0" points="186,151.2 186,152.1 186.4,152.1 186.9,152.1 186.9,151.2 186.4,151.2 "/>
<rect x="203.8" y="151.2" class="st0" width="0.9" height="0.9"/>
<polygon class="st0" points="221.7,151.2 221.7,152.1 222.1,152.1 222.6,152.1 222.6,151.2 222.1,151.2 "/>
<rect x="239.6" y="151.2" class="st0" width="0.9" height="0.9"/>
<polygon class="st0" points="257.4,151.2 257.4,152.1 257.8,152.1 258.3,152.1 258.3,151.2 257.8,151.2 "/>
<rect x="275.3" y="151.2" class="st0" width="0.9" height="0.9"/>
<polygon class="st0" points="293.1,151.2 293.1,152.1 293.6,152.1 294,152.1 294,151.2 293.6,151.2 "/>
<rect x="311" y="151.2" class="st0" width="0.9" height="0.9"/>
<polygon class="st0" points="328.8,151.2 328.8,152.1 329.3,152.1 329.7,152.1 329.7,151.2 329.3,151.2 "/>
<rect x="346.7" y="151.2" class="st0" width="0.9" height="0.9"/>
<rect x="16.7" y="169.1" class="st0" width="0.8" height="0.9"/>
<polygon class="st0" points="34.5,169.1 34.5,170 35,170 35.4,170 35.4,169.1 35,169.1 "/>
<rect x="52.4" y="169.1" class="st0" width="0.8" height="0.9"/>
<polygon class="st0" points="70.2,169.1 70.2,170 70.7,170 71.1,170 71.1,169.1 70.7,169.1 "/>
<rect x="88.1" y="169.1" class="st0" width="0.8" height="0.9"/>
<polygon class="st0" points="105.9,169.1 105.9,170 106.4,170 106.8,170 106.8,169.1 106.4,169.1 "/>
<rect x="123.8" y="169.1" class="st0" width="0.9" height="0.9"/>
<polygon class="st0" points="141.6,169.1 141.6,170 142.1,170 142.5,170 142.5,169.1 142.1,169.1 "/>
<rect x="159.5" y="169.1" class="st0" width="0.9" height="0.9"/>
<polygon class="st0" points="177.4,169.1 177.4,170 177.8,170 178.3,170 178.3,169.1 177.8,169.1 "/>
<rect x="195.2" y="169.1" class="st0" width="0.9" height="0.9"/>
<polygon class="st0" points="213.1,169.1 213.1,170 213.5,170 214,170 214,169.1 213.5,169.1 "/>
<rect x="231" y="169.1" class="st0" width="0.9" height="0.9"/>
<polygon class="st0" points="248.8,169.1 248.8,170 249.2,170 249.7,170 249.7,169.1 249.2,169.1 "/>
<rect x="266.7" y="169.1" class="st0" width="0.9" height="0.9"/>
<polygon class="st0" points="284.5,169.1 284.5,170 285,170 285.4,170 285.4,169.1 285,169.1 "/>
<rect x="302.4" y="169.1" class="st0" width="0.9" height="0.9"/>
<polygon class="st0" points="320.2,169.1 320.2,170 320.7,170 321.1,170 321.1,169.1 320.7,169.1 "/>
<rect x="338.1" y="169.1" class="st0" width="0.9" height="0.9"/>
<rect x="16.7" y="204.8" class="st0" width="0.8" height="0.9"/>
<polygon class="st0" points="34.5,204.8 34.5,205.7 35,205.7 35.4,205.7 35.4,204.8 35,204.8 "/>
<rect x="52.4" y="204.8" class="st0" width="0.8" height="0.9"/>
<polygon class="st0" points="70.2,204.8 70.2,205.7 70.7,205.7 71.1,205.7 71.1,204.8 70.7,204.8 "/>
<rect x="88.1" y="204.8" class="st0" width="0.8" height="0.9"/>
<polygon class="st0" points="105.9,204.8 105.9,205.7 106.4,205.7 106.8,205.7 106.8,204.8 106.4,204.8 "/>
<rect x="123.8" y="204.8" class="st0" width="0.9" height="0.9"/>
<polygon class="st0" points="141.6,204.8 141.6,205.7 142.1,205.7 142.5,205.7 142.5,204.8 142.1,204.8 "/>
<rect x="159.5" y="204.8" class="st0" width="0.9" height="0.9"/>
<polygon class="st0" points="177.4,204.8 177.4,205.7 177.8,205.7 178.3,205.7 178.3,204.8 177.8,204.8 "/>
<rect x="195.2" y="204.8" class="st0" width="0.9" height="0.9"/>
<polygon class="st0" points="213.1,204.8 213.1,205.7 213.5,205.7 214,205.7 214,204.8 213.5,204.8 "/>
<rect x="231" y="204.8" class="st0" width="0.9" height="0.9"/>
<polygon class="st0" points="248.8,204.8 248.8,205.7 249.2,205.7 249.7,205.7 249.7,204.8 249.2,204.8 "/>
<rect x="266.7" y="204.8" class="st0" width="0.9" height="0.9"/>
<polygon class="st0" points="284.5,204.8 284.5,205.7 285,205.7 285.4,205.7 285.4,204.8 285,204.8 "/>
<rect x="302.4" y="204.8" class="st0" width="0.9" height="0.9"/>
<polygon class="st0" points="320.2,204.8 320.2,205.7 320.7,205.7 321.1,205.7 321.1,204.8 320.7,204.8 "/>
<rect x="338.1" y="204.8" class="st0" width="0.9" height="0.9"/>
<rect x="25.3" y="186.9" class="st0" width="0.8" height="0.9"/>
<polygon class="st0" points="43.1,186.9 43.1,187.8 43.5,187.8 44,187.8 44,186.9 43.5,186.9 "/>
<rect x="61" y="186.9" class="st0" width="0.8" height="0.9"/>
<polygon class="st0" points="78.8,186.9 78.8,187.8 79.3,187.8 79.7,187.8 79.7,186.9 79.3,186.9 "/>
<rect x="96.7" y="186.9" class="st0" width="0.8" height="0.9"/>
<polygon class="st0" points="114.5,186.9 114.5,187.8 115,187.8 115.4,187.8 115.4,186.9 115,186.9 "/>
<rect x="132.4" y="186.9" class="st0" width="0.9" height="0.9"/>
<polygon class="st0" points="150.2,186.9 150.2,187.8 150.7,187.8 151.1,187.8 151.1,186.9 150.7,186.9 "/>
<rect x="168.1" y="186.9" class="st0" width="0.9" height="0.9"/>
<polygon class="st0" points="186,186.9 186,187.8 186.4,187.8 186.9,187.8 186.9,186.9 186.4,186.9 "/>
<rect x="203.8" y="186.9" class="st0" width="0.9" height="0.9"/>
<polygon class="st0" points="221.7,186.9 221.7,187.8 222.1,187.8 222.6,187.8 222.6,186.9 222.1,186.9 "/>
<rect x="239.6" y="186.9" class="st0" width="0.9" height="0.9"/>
<polygon class="st0" points="257.4,186.9 257.4,187.8 257.8,187.8 258.3,187.8 258.3,186.9 257.8,186.9 "/>
<rect x="275.3" y="186.9" class="st0" width="0.9" height="0.9"/>
<polygon class="st0" points="293.1,186.9 293.1,187.8 293.6,187.8 294,187.8 294,186.9 293.6,186.9 "/>
<rect x="311" y="186.9" class="st0" width="0.9" height="0.9"/>
<polygon class="st0" points="328.8,186.9 328.8,187.8 329.3,187.8 329.7,187.8 329.7,186.9 329.3,186.9 "/>
<rect x="346.7" y="186.9" class="st0" width="0.9" height="0.9"/>
<polygon class="st0" points="7.4,8.4 7.4,9.3 7.8,9.3 8.3,9.3 8.3,8.4 7.8,8.4 "/>
<polygon class="st0" points="7.4,44.1 7.4,45 7.8,45 8.3,45 8.3,44.1 7.8,44.1 "/>
<polygon class="st0" points="7.4,79.8 7.4,80.7 7.8,80.7 8.3,80.7 8.3,79.8 7.8,79.8 "/>
<polygon class="st0" points="7.4,115.5 7.4,116.4 7.8,116.4 8.3,116.4 8.3,115.5 7.8,115.5 "/>
<polygon class="st0" points="7.4,151.2 7.4,152.1 7.8,152.1 8.3,152.1 8.3,151.2 7.8,151.2 "/>
<polygon class="st0" points="7.4,186.9 7.4,187.8 7.8,187.8 8.3,187.8 8.3,186.9 7.8,186.9 "/>
</svg>
