<?xml version="1.0" encoding="utf-8"?>
<!-- Generator: Adobe Illustrator 24.0.1, SVG Export Plug-In . SVG Version: 6.00 Build 0)  -->
<svg version="1.1" id="Layer_1" xmlns="http://www.w3.org/2000/svg" xmlns:xlink="http://www.w3.org/1999/xlink" x="0px" y="0px"
	 viewBox="0 0 355.7 214.8" style="enable-background:new 0 0 355.7 214.8;" xml:space="preserve">
<style type="text/css">
	.st0{fill:#FFFFFF;}
</style>
<title>bg_multitouch</title>
<polygon class="st0" points="-1.3,106.9 -1.3,106.9 -1.4,106.9 -1.4,107.4 -1.4,107.8 -0.5,107.8 -0.5,107.8 -0.4,107.8 -0.4,106.9 
	-0.8,106.9 "/>
<rect x="22.6" y="106.9" class="st0" width="0.7" height="0.9"/>
<rect x="10.7" y="106.9" class="st0" width="0.7" height="0.9"/>
<polygon class="st0" points="34.4,106.9 34.4,106.9 34.4,106.9 34.4,107.4 34.4,107.8 35.3,107.8 35.3,107.8 35.3,107.8 35.3,106.9 
	34.9,106.9 "/>
<rect x="46.4" y="106.9" class="st0" width="0.7" height="0.9"/>
<rect x="58.3" y="106.9" class="st0" width="0.7" height="0.9"/>
<polygon class="st0" points="71,106.9 70.6,106.9 70.1,106.9 70.1,107.8 70.1,107.8 70.1,107.8 71,107.8 71,107.4 71,106.9 
	71,106.9 "/>
<rect x="94" y="106.9" class="st0" width="0.7" height="0.9"/>
<rect x="82.2" y="106.9" class="st0" width="0.7" height="0.9"/>
<polygon class="st0" points="106.8,106.9 106.3,106.9 105.9,106.9 105.9,107.8 105.9,107.8 105.9,107.8 106.8,107.8 106.8,107.4 
	106.8,106.9 106.8,106.9 "/>
<rect x="117.9" y="106.9" class="st0" width="0.7" height="0.9"/>
<rect x="129.7" y="106.9" class="st0" width="0.7" height="0.9"/>
<polygon class="st0" points="142.5,106.9 142,106.9 141.6,106.9 141.6,107.8 141.7,107.8 141.7,107.8 142.6,107.8 142.6,107.4 
	142.6,106.9 142.5,106.9 "/>
<rect x="165.4" y="106.9" class="st0" width="0.7" height="0.9"/>
<rect x="153.6" y="106.9" class="st0" width="0.7" height="0.9"/>
<polygon class="st0" points="177.3,106.9 177.3,106.9 177.2,106.9 177.2,107.4 177.2,107.8 178.1,107.8 178.1,107.8 178.2,107.8 
	178.2,106.9 177.7,106.9 "/>
<rect x="189.3" y="106.9" class="st0" width="0.7" height="0.9"/>
<rect x="201.1" y="106.9" class="st0" width="0.7" height="0.9"/>
<polygon class="st0" points="213,106.9 213,106.9 213,106.9 213,107.4 213,107.8 213.9,107.8 213.9,107.8 213.9,107.8 213.9,106.9 
	213.5,106.9 "/>
<rect x="225" y="106.9" class="st0" width="0.7" height="0.9"/>
<rect x="236.9" y="106.9" class="st0" width="0.7" height="0.9"/>
<polygon class="st0" points="248.7,106.9 248.7,106.9 248.7,107.4 248.7,107.8 248.7,107.8 249.6,107.8 249.6,107.8 249.6,107.4 
	249.6,106.9 249.6,106.9 249.2,106.9 "/>
<rect x="260.7" y="106.9" class="st0" width="0.7" height="0.9"/>
<rect x="272.6" y="106.9" class="st0" width="0.7" height="0.9"/>
<polygon class="st0" points="285.3,106.9 284.9,106.9 284.4,106.9 284.4,107.8 284.5,107.8 284.5,107.8 285.4,107.8 285.4,107.4 
	285.4,106.9 285.3,106.9 "/>
<rect x="308.3" y="106.9" class="st0" width="0.7" height="0.9"/>
<rect x="296.4" y="106.9" class="st0" width="0.7" height="0.9"/>
<polygon class="st0" points="321,106.9 320.6,106.9 320.1,106.9 320.1,107.8 320.2,107.8 320.2,107.8 321.1,107.8 321.1,107.4 
	321.1,106.9 321,106.9 "/>
<rect x="332.2" y="106.9" class="st0" width="0.7" height="0.9"/>
<rect x="344" y="106.9" class="st0" width="0.7" height="0.9"/>
<rect x="355.9" y="106.9" class="st0" width="0.5" height="0.9"/>
<polygon class="st0" points="-1.3,71.1 -1.3,71.2 -1.4,71.2 -1.4,71.7 -1.4,72.1 -0.5,72.1 -0.5,72 -0.4,72 -0.4,71.1 -0.8,71.1 "/>
<rect x="10.7" y="71.1" class="st0" width="0.7" height="0.9"/>
<rect x="22.6" y="71.1" class="st0" width="0.7" height="0.9"/>
<polygon class="st0" points="34.4,71.1 34.4,71.2 34.4,71.2 34.4,71.7 34.4,72.1 35.3,72.1 35.3,72 35.3,72 35.3,71.1 34.9,71.1 "/>
<rect x="46.4" y="71.1" class="st0" width="0.7" height="0.9"/>
<rect x="58.3" y="71.1" class="st0" width="0.7" height="0.9"/>
<polygon class="st0" points="71,71.1 70.6,71.1 70.1,71.1 70.1,72 70.1,72 70.1,72.1 71,72.1 71,71.7 71,71.2 71,71.2 "/>
<rect x="94" y="71.1" class="st0" width="0.7" height="0.9"/>
<rect x="82.2" y="71.1" class="st0" width="0.7" height="0.9"/>
<polygon class="st0" points="106.8,71.1 106.3,71.1 105.9,71.1 105.9,72 105.9,72 105.9,72.1 106.8,72.1 106.8,71.7 106.8,71.2 
	106.8,71.2 "/>
<rect x="117.9" y="71.1" class="st0" width="0.7" height="0.9"/>
<rect x="129.7" y="71.1" class="st0" width="0.7" height="0.9"/>
<polygon class="st0" points="142.5,71.1 142,71.1 141.6,71.1 141.6,72 141.7,72 141.7,72.1 142.6,72.1 142.6,71.7 142.6,71.2 
	142.5,71.2 "/>
<rect x="165.4" y="71.1" class="st0" width="0.7" height="0.9"/>
<rect x="153.6" y="71.1" class="st0" width="0.7" height="0.9"/>
<polygon class="st0" points="177.3,71.1 177.3,71.2 177.2,71.2 177.2,71.7 177.2,72.1 178.1,72.1 178.1,72 178.2,72 178.2,71.1 
	177.7,71.1 "/>
<rect x="201.1" y="71.1" class="st0" width="0.7" height="0.9"/>
<rect x="189.3" y="71.1" class="st0" width="0.7" height="0.9"/>
<polygon class="st0" points="213,71.1 213,71.2 213,71.2 213,71.7 213,72.1 213.9,72.1 213.9,72 213.9,72 213.9,71.1 213.5,71.1 "/>
<rect x="236.9" y="71.1" class="st0" width="0.7" height="0.9"/>
<rect x="225" y="71.1" class="st0" width="0.7" height="0.9"/>
<polygon class="st0" points="248.7,71.1 248.7,71.2 248.7,71.7 248.7,72 248.7,72.1 249.6,72.1 249.6,72 249.6,71.7 249.6,71.2 
	249.6,71.1 249.2,71.1 "/>
<rect x="272.6" y="71.1" class="st0" width="0.7" height="0.9"/>
<rect x="260.7" y="71.1" class="st0" width="0.7" height="0.9"/>
<polygon class="st0" points="285.3,71.1 284.9,71.1 284.4,71.1 284.4,72 284.5,72 284.5,72.1 285.4,72.1 285.4,71.7 285.4,71.2 
	285.3,71.2 "/>
<rect x="296.4" y="71.1" class="st0" width="0.7" height="0.9"/>
<rect x="308.3" y="71.1" class="st0" width="0.7" height="0.9"/>
<polygon class="st0" points="321,71.1 320.6,71.1 320.1,71.1 320.1,72 320.2,72 320.2,72.1 321.1,72.1 321.1,71.7 321.1,71.2 
	321,71.2 "/>
<rect x="332.2" y="71.1" class="st0" width="0.7" height="0.9"/>
<rect x="344" y="71.1" class="st0" width="0.7" height="0.9"/>
<rect x="355.9" y="71.1" class="st0" width="0.5" height="0.9"/>
<polygon class="st0" points="-1.3,35.4 -1.3,35.5 -1.4,35.5 -1.4,35.9 -1.4,36.4 -0.5,36.4 -0.5,36.3 -0.4,36.3 -0.4,35.4 
	-0.8,35.4 "/>
<rect x="10.7" y="35.4" class="st0" width="0.7" height="0.9"/>
<rect x="22.6" y="35.4" class="st0" width="0.7" height="0.9"/>
<polygon class="st0" points="34.4,35.4 34.4,35.5 34.4,35.5 34.4,35.9 34.4,36.4 35.3,36.4 35.3,36.3 35.3,36.3 35.3,35.4 
	34.9,35.4 "/>
<rect x="58.3" y="35.4" class="st0" width="0.7" height="0.9"/>
<rect x="46.4" y="35.4" class="st0" width="0.7" height="0.9"/>
<polygon class="st0" points="71,35.4 70.6,35.4 70.1,35.4 70.1,36.3 70.1,36.3 70.1,36.4 71,36.4 71,35.9 71,35.5 71,35.5 "/>
<rect x="94" y="35.4" class="st0" width="0.7" height="0.9"/>
<rect x="82.2" y="35.4" class="st0" width="0.7" height="0.9"/>
<polygon class="st0" points="106.8,35.4 106.3,35.4 105.9,35.4 105.9,36.3 105.9,36.3 105.9,36.4 106.8,36.4 106.8,35.9 106.8,35.5 
	106.8,35.5 "/>
<rect x="129.7" y="35.4" class="st0" width="0.7" height="0.9"/>
<rect x="117.9" y="35.4" class="st0" width="0.7" height="0.9"/>
<polygon class="st0" points="142.5,35.4 142,35.4 141.6,35.4 141.6,36.3 141.7,36.3 141.7,36.4 142.6,36.4 142.6,35.9 142.6,35.5 
	142.5,35.5 "/>
<rect x="165.4" y="35.4" class="st0" width="0.7" height="0.9"/>
<rect x="153.6" y="35.4" class="st0" width="0.7" height="0.9"/>
<polygon class="st0" points="177.3,35.4 177.3,35.5 177.2,35.5 177.2,35.9 177.2,36.4 178.1,36.4 178.1,36.3 178.2,36.3 178.2,35.4 
	177.7,35.4 "/>
<rect x="201.1" y="35.4" class="st0" width="0.7" height="0.9"/>
<rect x="189.3" y="35.4" class="st0" width="0.7" height="0.9"/>
<polygon class="st0" points="213,35.4 213,35.5 213,35.5 213,35.9 213,36.4 213.9,36.4 213.9,36.3 213.9,36.3 213.9,35.4 
	213.5,35.4 "/>
<rect x="236.9" y="35.4" class="st0" width="0.7" height="0.9"/>
<rect x="225" y="35.4" class="st0" width="0.7" height="0.9"/>
<polygon class="st0" points="248.7,35.4 248.7,35.5 248.7,35.9 248.7,36.3 248.7,36.4 249.6,36.4 249.6,36.3 249.6,35.9 249.6,35.5 
	249.6,35.4 249.2,35.4 "/>
<rect x="260.7" y="35.4" class="st0" width="0.7" height="0.9"/>
<rect x="272.6" y="35.4" class="st0" width="0.7" height="0.9"/>
<polygon class="st0" points="285.3,35.4 284.9,35.4 284.4,35.4 284.4,36.3 284.5,36.3 284.5,36.4 285.4,36.4 285.4,35.9 285.4,35.5 
	285.3,35.5 "/>
<rect x="308.3" y="35.4" class="st0" width="0.7" height="0.9"/>
<rect x="296.4" y="35.4" class="st0" width="0.7" height="0.9"/>
<polygon class="st0" points="321,35.4 320.6,35.4 320.1,35.4 320.1,36.3 320.2,36.3 320.2,36.4 321.1,36.4 321.1,35.9 321.1,35.5 
	321,35.5 "/>
<rect x="332.2" y="35.4" class="st0" width="0.7" height="0.9"/>
<rect x="344" y="35.4" class="st0" width="0.7" height="0.9"/>
<rect x="355.9" y="35.4" class="st0" width="0.5" height="0.9"/>
<polygon class="st0" points="-1.3,142.6 -1.3,142.6 -1.4,142.6 -1.4,143.1 -1.4,143.5 -0.5,143.5 -0.5,143.5 -0.4,143.5 -0.4,142.6 
	-0.8,142.6 "/>
<rect x="22.6" y="142.6" class="st0" width="0.7" height="0.9"/>
<rect x="10.7" y="142.6" class="st0" width="0.7" height="0.9"/>
<polygon class="st0" points="34.4,142.6 34.4,142.6 34.4,142.6 34.4,143.1 34.4,143.5 35.3,143.5 35.3,143.5 35.3,143.5 35.3,142.6 
	34.9,142.6 "/>
<rect x="58.3" y="142.6" class="st0" width="0.7" height="0.9"/>
<rect x="46.4" y="142.6" class="st0" width="0.7" height="0.9"/>
<polygon class="st0" points="71,142.6 70.6,142.6 70.1,142.6 70.1,143.5 70.1,143.5 70.1,143.5 71,143.5 71,143.1 71,142.6 
	71,142.6 "/>
<rect x="82.2" y="142.6" class="st0" width="0.7" height="0.9"/>
<rect x="94" y="142.6" class="st0" width="0.7" height="0.9"/>
<polygon class="st0" points="106.8,142.6 106.3,142.6 105.9,142.6 105.9,143.5 105.9,143.5 105.9,143.5 106.8,143.5 106.8,143.1 
	106.8,142.6 106.8,142.6 "/>
<rect x="129.7" y="142.6" class="st0" width="0.7" height="0.9"/>
<rect x="117.9" y="142.6" class="st0" width="0.7" height="0.9"/>
<polygon class="st0" points="142.5,142.6 142,142.6 141.6,142.6 141.6,143.5 141.7,143.5 141.7,143.5 142.6,143.5 142.6,143.1 
	142.6,142.6 142.5,142.6 "/>
<rect x="165.4" y="142.6" class="st0" width="0.7" height="0.9"/>
<rect x="153.6" y="142.6" class="st0" width="0.7" height="0.9"/>
<polygon class="st0" points="177.3,142.6 177.3,142.6 177.2,142.6 177.2,143.1 177.2,143.5 178.1,143.5 178.1,143.5 178.2,143.5 
	178.2,142.6 177.7,142.6 "/>
<rect x="201.1" y="142.6" class="st0" width="0.7" height="0.9"/>
<rect x="189.3" y="142.6" class="st0" width="0.7" height="0.9"/>
<polygon class="st0" points="213,142.6 213,142.6 213,142.6 213,143.1 213,143.5 213.9,143.5 213.9,143.5 213.9,143.5 213.9,142.6 
	213.5,142.6 "/>
<rect x="225" y="142.6" class="st0" width="0.7" height="0.9"/>
<rect x="236.9" y="142.6" class="st0" width="0.7" height="0.9"/>
<polygon class="st0" points="248.7,142.6 248.7,142.6 248.7,143.1 248.7,143.5 248.7,143.5 249.6,143.5 249.6,143.5 249.6,143.1 
	249.6,142.6 249.6,142.6 249.2,142.6 "/>
<rect x="260.7" y="142.6" class="st0" width="0.7" height="0.9"/>
<rect x="272.6" y="142.6" class="st0" width="0.7" height="0.9"/>
<polygon class="st0" points="285.3,142.6 284.9,142.6 284.4,142.6 284.4,143.5 284.5,143.5 284.5,143.5 285.4,143.5 285.4,143.1 
	285.4,142.6 285.3,142.6 "/>
<rect x="308.3" y="142.6" class="st0" width="0.7" height="0.9"/>
<rect x="296.4" y="142.6" class="st0" width="0.7" height="0.9"/>
<polygon class="st0" points="321,142.6 320.6,142.6 320.1,142.6 320.1,143.5 320.2,143.5 320.2,143.5 321.1,143.5 321.1,143.1 
	321.1,142.6 321,142.6 "/>
<rect x="344" y="142.6" class="st0" width="0.7" height="0.9"/>
<rect x="332.2" y="142.6" class="st0" width="0.7" height="0.9"/>
<rect x="355.9" y="142.6" class="st0" width="0.5" height="0.9"/>
<rect x="22.6" y="178.4" class="st0" width="0.7" height="0.9"/>
<rect x="10.7" y="178.4" class="st0" width="0.7" height="0.9"/>
<rect x="46.4" y="178.4" class="st0" width="0.7" height="0.9"/>
<rect x="58.3" y="178.4" class="st0" width="0.7" height="0.9"/>
<rect x="94" y="178.4" class="st0" width="0.7" height="0.9"/>
<rect x="82.2" y="178.4" class="st0" width="0.7" height="0.9"/>
<rect x="129.7" y="178.4" class="st0" width="0.7" height="0.9"/>
<rect x="117.9" y="178.4" class="st0" width="0.7" height="0.9"/>
<rect x="153.6" y="178.4" class="st0" width="0.7" height="0.9"/>
<rect x="165.4" y="178.4" class="st0" width="0.7" height="0.9"/>
<rect x="189.3" y="178.4" class="st0" width="0.7" height="0.9"/>
<rect x="201.1" y="178.4" class="st0" width="0.7" height="0.9"/>
<rect x="236.9" y="178.4" class="st0" width="0.7" height="0.9"/>
<rect x="225" y="178.4" class="st0" width="0.7" height="0.9"/>
<rect x="260.7" y="178.4" class="st0" width="0.7" height="0.9"/>
<rect x="272.6" y="178.4" class="st0" width="0.7" height="0.9"/>
<rect x="308.3" y="178.4" class="st0" width="0.7" height="0.9"/>
<rect x="296.4" y="178.4" class="st0" width="0.7" height="0.9"/>
<rect x="344" y="178.4" class="st0" width="0.7" height="0.9"/>
<rect x="332.2" y="178.4" class="st0" width="0.7" height="0.9"/>
<rect x="70.1" y="0.2" class="st0" width="0.9" height="0.4"/>
<rect x="70.1" y="23.6" class="st0" width="0.9" height="0.7"/>
<rect x="70.1" y="11.8" class="st0" width="0.9" height="0.7"/>
<rect x="70.1" y="59.4" class="st0" width="0.9" height="0.7"/>
<rect x="70.1" y="47.5" class="st0" width="0.9" height="0.7"/>
<rect x="70.1" y="83.2" class="st0" width="0.9" height="0.7"/>
<rect x="70.1" y="95.1" class="st0" width="0.9" height="0.7"/>
<rect x="70.1" y="118.9" class="st0" width="0.9" height="0.7"/>
<rect x="70.1" y="130.8" class="st0" width="0.9" height="0.7"/>
<rect x="70.1" y="166.5" class="st0" width="0.9" height="0.7"/>
<rect x="70.1" y="154.7" class="st0" width="0.9" height="0.7"/>
<polygon class="st0" points="70.1,178.4 70.1,178.4 70.1,179.3 70.6,179.3 71,179.3 71,179.3 71,179.3 71,178.8 71,178.4 
	70.1,178.4 "/>
<rect x="70.1" y="202.2" class="st0" width="0.9" height="0.7"/>
<rect x="70.1" y="190.4" class="st0" width="0.9" height="0.7"/>
<rect x="70.1" y="214.1" class="st0" width="0.9" height="0.4"/>
<rect x="34.4" y="0.2" class="st0" width="0.9" height="0.4"/>
<rect x="34.4" y="11.8" class="st0" width="0.9" height="0.7"/>
<rect x="34.4" y="23.6" class="st0" width="0.9" height="0.7"/>
<rect x="34.4" y="47.5" class="st0" width="0.9" height="0.7"/>
<rect x="34.4" y="59.4" class="st0" width="0.9" height="0.7"/>
<rect x="34.4" y="83.2" class="st0" width="0.9" height="0.7"/>
<rect x="34.4" y="95.1" class="st0" width="0.9" height="0.7"/>
<rect x="34.4" y="130.8" class="st0" width="0.9" height="0.7"/>
<rect x="34.4" y="118.9" class="st0" width="0.9" height="0.7"/>
<rect x="34.4" y="154.7" class="st0" width="0.9" height="0.7"/>
<rect x="34.4" y="166.5" class="st0" width="0.9" height="0.7"/>
<polygon class="st0" points="35.3,178.4 34.4,178.4 34.4,178.8 34.4,179.3 34.4,179.3 34.4,179.3 34.9,179.3 35.3,179.3 35.3,178.4 
	35.3,178.4 "/>
<rect x="34.4" y="190.4" class="st0" width="0.9" height="0.7"/>
<rect x="34.4" y="202.2" class="st0" width="0.9" height="0.7"/>
<rect x="34.4" y="214.1" class="st0" width="0.9" height="0.4"/>
<polygon class="st0" points="-0.5,178.4 -1.4,178.4 -1.4,178.8 -1.4,179.3 -1.3,179.3 -1.3,179.3 -0.8,179.3 -0.4,179.3 -0.4,178.4 
	-0.5,178.4 "/>
<rect x="105.9" y="0.2" class="st0" width="0.9" height="0.4"/>
<rect x="105.9" y="11.8" class="st0" width="0.9" height="0.7"/>
<rect x="105.9" y="23.6" class="st0" width="0.9" height="0.7"/>
<rect x="105.9" y="47.5" class="st0" width="0.9" height="0.7"/>
<rect x="105.9" y="59.4" class="st0" width="0.9" height="0.7"/>
<rect x="105.9" y="95.1" class="st0" width="0.9" height="0.7"/>
<rect x="105.9" y="83.2" class="st0" width="0.9" height="0.7"/>
<rect x="105.9" y="118.9" class="st0" width="0.9" height="0.7"/>
<rect x="105.9" y="130.8" class="st0" width="0.9" height="0.7"/>
<rect x="105.9" y="166.5" class="st0" width="0.9" height="0.7"/>
<rect x="105.9" y="154.7" class="st0" width="0.9" height="0.7"/>
<polygon class="st0" points="105.9,178.4 105.9,178.4 105.9,179.3 106.3,179.3 106.8,179.3 106.8,179.3 106.8,179.3 106.8,178.8 
	106.8,178.4 105.9,178.4 "/>
<rect x="105.9" y="202.2" class="st0" width="0.9" height="0.7"/>
<rect x="105.9" y="190.4" class="st0" width="0.9" height="0.7"/>
<rect x="105.9" y="214.1" class="st0" width="0.9" height="0.4"/>
<rect x="141.7" y="0.2" class="st0" width="0.9" height="0.4"/>
<rect x="141.7" y="23.6" class="st0" width="0.9" height="0.7"/>
<rect x="141.7" y="11.8" class="st0" width="0.9" height="0.7"/>
<rect x="141.7" y="47.5" class="st0" width="0.9" height="0.7"/>
<rect x="141.7" y="59.4" class="st0" width="0.9" height="0.7"/>
<rect x="141.7" y="83.2" class="st0" width="0.9" height="0.7"/>
<rect x="141.7" y="95.1" class="st0" width="0.9" height="0.7"/>
<rect x="141.7" y="130.8" class="st0" width="0.9" height="0.7"/>
<rect x="141.7" y="118.9" class="st0" width="0.9" height="0.7"/>
<rect x="141.7" y="166.5" class="st0" width="0.9" height="0.7"/>
<rect x="141.7" y="154.7" class="st0" width="0.9" height="0.7"/>
<polygon class="st0" points="141.7,178.4 141.6,178.4 141.6,179.3 142,179.3 142.5,179.3 142.5,179.3 142.6,179.3 142.6,178.8 
	142.6,178.4 141.7,178.4 "/>
<rect x="141.7" y="202.2" class="st0" width="0.9" height="0.7"/>
<rect x="141.7" y="190.4" class="st0" width="0.9" height="0.7"/>
<rect x="141.7" y="214.1" class="st0" width="0.9" height="0.4"/>
<rect x="248.7" y="0.2" class="st0" width="0.9" height="0.4"/>
<rect x="248.7" y="11.8" class="st0" width="0.9" height="0.7"/>
<rect x="248.7" y="23.6" class="st0" width="0.9" height="0.7"/>
<rect x="248.7" y="47.5" class="st0" width="0.9" height="0.7"/>
<rect x="248.7" y="59.4" class="st0" width="0.9" height="0.7"/>
<rect x="248.7" y="95.1" class="st0" width="0.9" height="0.7"/>
<rect x="248.7" y="83.2" class="st0" width="0.9" height="0.7"/>
<rect x="248.7" y="130.8" class="st0" width="0.9" height="0.7"/>
<rect x="248.7" y="118.9" class="st0" width="0.9" height="0.7"/>
<rect x="248.7" y="166.5" class="st0" width="0.9" height="0.7"/>
<rect x="248.7" y="154.7" class="st0" width="0.9" height="0.7"/>
<polygon class="st0" points="248.7,178.4 248.7,178.8 248.7,179.3 248.7,179.3 249.2,179.3 249.6,179.3 249.6,179.3 249.6,178.8 
	249.6,178.4 249.6,178.4 248.7,178.4 "/>
<rect x="248.7" y="202.2" class="st0" width="0.9" height="0.7"/>
<rect x="248.7" y="190.4" class="st0" width="0.9" height="0.7"/>
<rect x="248.7" y="214.1" class="st0" width="0.9" height="0.4"/>
<rect x="284.5" y="0.2" class="st0" width="0.9" height="0.4"/>
<rect x="284.5" y="23.6" class="st0" width="0.9" height="0.7"/>
<rect x="284.5" y="11.8" class="st0" width="0.9" height="0.7"/>
<rect x="284.5" y="47.5" class="st0" width="0.9" height="0.7"/>
<rect x="284.5" y="59.4" class="st0" width="0.9" height="0.7"/>
<rect x="284.5" y="95.1" class="st0" width="0.9" height="0.7"/>
<rect x="284.5" y="83.2" class="st0" width="0.9" height="0.7"/>
<rect x="284.5" y="130.8" class="st0" width="0.9" height="0.7"/>
<rect x="284.5" y="118.9" class="st0" width="0.9" height="0.7"/>
<rect x="284.5" y="154.7" class="st0" width="0.9" height="0.7"/>
<rect x="284.5" y="166.5" class="st0" width="0.9" height="0.7"/>
<polygon class="st0" points="284.5,178.4 284.4,178.4 284.4,179.3 284.9,179.3 285.3,179.3 285.3,179.3 285.4,179.3 285.4,178.8 
	285.4,178.4 284.5,178.4 "/>
<rect x="284.5" y="202.2" class="st0" width="0.9" height="0.7"/>
<rect x="284.5" y="190.4" class="st0" width="0.9" height="0.7"/>
<rect x="284.5" y="214.1" class="st0" width="0.9" height="0.4"/>
<rect x="320.2" y="0.2" class="st0" width="0.9" height="0.4"/>
<rect x="320.2" y="23.6" class="st0" width="0.9" height="0.7"/>
<rect x="320.2" y="11.8" class="st0" width="0.9" height="0.7"/>
<rect x="320.2" y="59.4" class="st0" width="0.9" height="0.7"/>
<rect x="320.2" y="47.5" class="st0" width="0.9" height="0.7"/>
<rect x="320.2" y="95.1" class="st0" width="0.9" height="0.7"/>
<rect x="320.2" y="83.2" class="st0" width="0.9" height="0.7"/>
<rect x="320.2" y="130.8" class="st0" width="0.9" height="0.7"/>
<rect x="320.2" y="118.9" class="st0" width="0.9" height="0.7"/>
<rect x="320.2" y="154.7" class="st0" width="0.9" height="0.7"/>
<rect x="320.2" y="166.5" class="st0" width="0.9" height="0.7"/>
<polygon class="st0" points="320.2,178.4 320.1,178.4 320.1,179.3 320.6,179.3 321,179.3 321,179.3 321.1,179.3 321.1,178.8 
	321.1,178.4 320.2,178.4 "/>
<rect x="320.2" y="202.2" class="st0" width="0.9" height="0.7"/>
<rect x="320.2" y="190.4" class="st0" width="0.9" height="0.7"/>
<rect x="320.2" y="214.1" class="st0" width="0.9" height="0.4"/>
<rect x="213" y="0.2" class="st0" width="0.9" height="0.4"/>
<rect x="213" y="11.8" class="st0" width="0.9" height="0.7"/>
<rect x="213" y="23.6" class="st0" width="0.9" height="0.7"/>
<rect x="213" y="47.5" class="st0" width="0.9" height="0.7"/>
<rect x="213" y="59.4" class="st0" width="0.9" height="0.7"/>
<rect x="213" y="83.2" class="st0" width="0.9" height="0.7"/>
<rect x="213" y="95.1" class="st0" width="0.9" height="0.7"/>
<rect x="213" y="118.9" class="st0" width="0.9" height="0.7"/>
<rect x="213" y="130.8" class="st0" width="0.9" height="0.7"/>
<rect x="213" y="166.5" class="st0" width="0.9" height="0.7"/>
<rect x="213" y="154.7" class="st0" width="0.9" height="0.7"/>
<polygon class="st0" points="213.9,178.4 213,178.4 213,178.8 213,179.3 213,179.3 213,179.3 213.5,179.3 213.9,179.3 213.9,178.4 
	213.9,178.4 "/>
<rect x="213" y="190.4" class="st0" width="0.9" height="0.7"/>
<rect x="213" y="202.2" class="st0" width="0.9" height="0.7"/>
<rect x="213" y="214.1" class="st0" width="0.9" height="0.4"/>
<rect x="177.2" y="0.2" class="st0" width="0.9" height="0.4"/>
<rect x="177.2" y="11.8" class="st0" width="0.9" height="0.7"/>
<rect x="177.2" y="23.6" class="st0" width="0.9" height="0.7"/>
<rect x="177.2" y="47.5" class="st0" width="0.9" height="0.7"/>
<rect x="177.2" y="59.4" class="st0" width="0.9" height="0.7"/>
<rect x="177.2" y="95.1" class="st0" width="0.9" height="0.7"/>
<rect x="177.2" y="83.2" class="st0" width="0.9" height="0.7"/>
<rect x="177.2" y="130.8" class="st0" width="0.9" height="0.7"/>
<rect x="177.2" y="118.9" class="st0" width="0.9" height="0.7"/>
<rect x="177.2" y="166.5" class="st0" width="0.9" height="0.7"/>
<rect x="177.2" y="154.7" class="st0" width="0.9" height="0.7"/>
<polygon class="st0" points="178.1,178.4 177.2,178.4 177.2,178.8 177.2,179.3 177.3,179.3 177.3,179.3 177.7,179.3 178.2,179.3 
	178.2,178.4 178.1,178.4 "/>
<rect x="177.2" y="190.4" class="st0" width="0.9" height="0.7"/>
<rect x="177.2" y="202.2" class="st0" width="0.9" height="0.7"/>
<rect x="177.2" y="214.1" class="st0" width="0.9" height="0.4"/>
</svg>
