<?xml version="1.0" encoding="utf-8"?>
<!-- Generator: Adobe Illustrator 24.0.0, SVG Export Plug-In . SVG Version: 6.00 Build 0)  -->
<svg version="1.1" id="Layer_1" xmlns="http://www.w3.org/2000/svg" xmlns:xlink="http://www.w3.org/1999/xlink" x="0px" y="0px"
	 viewBox="0 0 187 48.5" style="enable-background:new 0 0 187 48.5;" xml:space="preserve">
<style type="text/css">
	.st0{fill:#FFFFFF;}
</style>
<g>
	<path class="st0" d="M0.9,10c0-1.1,0.4-2.1,1.2-2.9c0.9-0.9,1.8-1.3,3-1.3s2.2,0.4,3,1.2c0.8,0.9,1.2,1.8,1.2,3s-0.4,2.2-1.2,3
		c-0.8,0.8-1.8,1.2-3,1.2s-2.2-0.4-3-1.2S0.9,11.2,0.9,10z"/>
	<rect x="1.9" y="17.6" class="st0" width="6.5" height="28"/>
	<path class="st0" d="M11.5,17.6H18v2.6c2.3-2.2,4.8-3.4,7.6-3.4c3.3,0,5.8,1,7.6,3.1c1.6,1.7,2.4,4.6,2.4,8.5v17.2h-6.5V30
		c0-2.8-0.4-4.7-1.1-5.7c-0.8-1.1-2.1-1.6-4.1-1.6c-2.1,0-3.7,0.7-4.6,2.1S18,28.6,18,32.1v13.5h-6.5C11.6,45.6,11.6,17.6,11.5,17.6
		z"/>
	<path class="st0" d="M47,23.7v22h-6.5v-22h-3.8v-6h3.8v-6.3c0-3.5,0.6-6,1.8-7.5c1.8-2.1,4.2-3.1,7.4-3.1c1.2,0,3.1,0.3,4.8,1v6.6
		l-1.2-0.3C51.9,7.4,50.8,7,49.8,7c-1.2,0-1.9,0.4-2.3,1.2c-0.4,0.8-0.6,0.9-0.6,3.2v6.2h7.5v6H47V23.7z"/>
	<path class="st0" d="M131.4,17.5v6h-7.5v10.3c0,2.3,0.2,3.8,0.6,4.7c0.4,0.8,1.2,1.2,2.3,1.2c0.9,0,2.1-0.3,3.4-1.1l1.2-0.3v6.6
		c-1.7,0.7-3.7,1-4.8,1c-3.2,0-5.7-1-7.4-3c-1.2-1.5-1.8-4-1.8-7.5V23.6h-3.8v-6h3.8v-16h6.5v16L131.4,17.5z"/>
	<path class="st0" d="M56.1,10c0-1.1,0.4-2.1,1.2-2.9s1.8-1.2,3-1.2s2.2,0.4,3,1.2c0.8,0.8,1.2,1.8,1.2,3s-0.4,2.2-1.2,3
		c-0.8,0.8-1.8,1.2-3,1.2s-2.2-0.4-3-1.2C56.5,12.2,56.1,11.2,56.1,10z"/>
	<rect x="57" y="17.6" class="st0" width="6.5" height="28"/>
	<path class="st0" d="M157.3,33.2h-18.6c0.2,2.3,0.9,4.1,2.1,5.5c1.2,1.3,2.8,2,4.7,2c1.5,0,2.7-0.4,3.7-1.2s1.7-1.7,2.9-3.7
		l5.5,2.5c-0.8,1.4-1.6,2.7-2.5,3.7s-1.8,1.9-2.8,2.5c-1,0.7-2.1,1.1-3.2,1.5s-2.4,0.5-3.8,0.5c-3.9,0-7-1.3-9.3-4
		s-3.5-6.3-3.5-10.8c0-4.4,1.1-8,3.4-10.8c2.3-2.7,5.3-4,9.1-4s6.8,1.3,9.1,3.9c2.2,2.6,3.3,6.2,3.3,10.8L157.3,33.2z M151.2,27.9
		c-0.8-3.5-2.9-5.2-6.1-5.2c-0.7,0-1.4,0.1-2.1,0.4s-1.2,0.6-1.8,1c-0.5,0.5-1,1-1.3,1.6c-0.4,0.6-0.7,1.4-0.9,2.1L151.2,27.9
		L151.2,27.9z"/>
	<path class="st0" d="M166.7,30.5l-9.5-12.9h7.3l5.9,8.2l6-8.2h7.5l-9.8,12.9l11.3,15.2h-7.3l-7.8-10.5l-8,10.5h-7.5L166.7,30.5z"/>
	<path class="st0" d="M69.1,18.3c-3.3,4.1-4.3,10.2-2.1,15.2c2.7,6.3,9.4,10.3,15.2,12.2c7.7,2.5,15.9,2.3,23.5-0.8
		c4.1-1.7,8.4-4.5,10.9-8.6l-1,0.1c-2.6,3.7-7.1,5.6-10.9,7c-6.1,2.3-12.8,2.5-19,1c-5.5-1.3-11.1-4.2-15-8.8
		c-0.9-1-1.7-2.2-2.2-3.5c0.2,0.3,0.3,0.6,0.5,0.9c3.4,5.4,9.4,8.3,15,9.9c9.3,2.7,23.4,0.9,29.4-8.2h-1c-2.4,3.2-6.1,4.6-9.6,5.8
		c-5.3,1.9-11.2,1.9-16.7,0.8c-5.5-1.2-15-6-17.2-12.3c0.4,0.8,0.9,1.6,1.4,2.3c3.2,4.6,8.5,7.1,13.4,8.5c8.6,2.5,20.5,1.1,26.2-6.9
		H109c-5.2,6.7-15.1,6.7-22.5,5.3c-4.6-0.9-9-2.9-12.6-6.1c-1.6-1.4-2.8-3.1-3.8-5c-1.4-2.8-1-5.4,0.2-8.1c0.1-0.2,0.2-0.4,0.3-0.6
		c0.2-0.5,0.2-0.9,0-1.1c-0.1-0.2-0.4-0.3-0.7,0L69.1,18.3z"/>
</g>
</svg>
